<mxfile host="app.diagrams.net" modified="2020-12-01T01:48:52.535Z" agent="5.0 (Windows NT 10.0; Win64; x64) AppleWebKit/537.36 (KHTML, like Gecko) Chrome/87.0.4280.66 Safari/537.36" etag="4rXku0TgdfCrBn5S2qsk" version="13.10.4" type="github">
  <diagram id="C5RBs43oDa-KdzZeNtuy" name="Page-1">
    <mxGraphModel dx="1943" dy="847" grid="0" gridSize="10" guides="1" tooltips="1" connect="1" arrows="1" fold="1" page="1" pageScale="1" pageWidth="827" pageHeight="1169" math="0" shadow="0">
      <root>
        <mxCell id="WIyWlLk6GJQsqaUBKTNV-0" />
        <mxCell id="WIyWlLk6GJQsqaUBKTNV-1" parent="WIyWlLk6GJQsqaUBKTNV-0" />
        <mxCell id="cNOhPZVzwZBMdhGlMtOQ-46" value="" style="rounded=0;whiteSpace=wrap;html=1;" vertex="1" parent="WIyWlLk6GJQsqaUBKTNV-1">
          <mxGeometry x="20" y="656" width="790" height="584" as="geometry" />
        </mxCell>
        <mxCell id="cNOhPZVzwZBMdhGlMtOQ-0" value="Browser" style="shape=umlLifeline;perimeter=lifelinePerimeter;container=1;collapsible=0;recursiveResize=0;rounded=0;shadow=0;strokeWidth=1;strokeColor=#FF3333;" vertex="1" parent="WIyWlLk6GJQsqaUBKTNV-1">
          <mxGeometry x="240" y="490" width="100" height="950" as="geometry" />
        </mxCell>
        <mxCell id="cNOhPZVzwZBMdhGlMtOQ-1" value="" style="points=[];perimeter=orthogonalPerimeter;rounded=0;shadow=0;strokeWidth=1;" vertex="1" parent="cNOhPZVzwZBMdhGlMtOQ-0">
          <mxGeometry x="45" y="70" width="10" height="673" as="geometry" />
        </mxCell>
        <mxCell id="cNOhPZVzwZBMdhGlMtOQ-4" value="Web Server" style="shape=umlLifeline;perimeter=lifelinePerimeter;container=1;collapsible=0;recursiveResize=0;rounded=0;shadow=0;strokeWidth=1;strokeColor=#FF3333;" vertex="1" parent="WIyWlLk6GJQsqaUBKTNV-1">
          <mxGeometry x="460" y="490" width="100" height="950" as="geometry" />
        </mxCell>
        <mxCell id="cNOhPZVzwZBMdhGlMtOQ-42" value="" style="points=[];perimeter=orthogonalPerimeter;rounded=0;shadow=0;strokeWidth=1;" vertex="1" parent="cNOhPZVzwZBMdhGlMtOQ-4">
          <mxGeometry x="45" y="80" width="10" height="70" as="geometry" />
        </mxCell>
        <mxCell id="cNOhPZVzwZBMdhGlMtOQ-62" value="" style="points=[];perimeter=orthogonalPerimeter;rounded=0;shadow=0;strokeWidth=1;" vertex="1" parent="cNOhPZVzwZBMdhGlMtOQ-4">
          <mxGeometry x="45" y="208" width="10" height="182" as="geometry" />
        </mxCell>
        <mxCell id="cNOhPZVzwZBMdhGlMtOQ-73" value="" style="points=[];perimeter=orthogonalPerimeter;rounded=0;shadow=0;strokeWidth=1;" vertex="1" parent="cNOhPZVzwZBMdhGlMtOQ-4">
          <mxGeometry x="45" y="410" width="10" height="40" as="geometry" />
        </mxCell>
        <mxCell id="cNOhPZVzwZBMdhGlMtOQ-79" value="" style="points=[];perimeter=orthogonalPerimeter;rounded=0;shadow=0;strokeWidth=1;" vertex="1" parent="cNOhPZVzwZBMdhGlMtOQ-4">
          <mxGeometry x="45" y="490" width="10" height="152" as="geometry" />
        </mxCell>
        <mxCell id="cNOhPZVzwZBMdhGlMtOQ-90" value="" style="points=[];perimeter=orthogonalPerimeter;rounded=0;shadow=0;strokeWidth=1;" vertex="1" parent="cNOhPZVzwZBMdhGlMtOQ-4">
          <mxGeometry x="50" y="540" width="10" height="30" as="geometry" />
        </mxCell>
        <mxCell id="cNOhPZVzwZBMdhGlMtOQ-91" value="" style="endArrow=classic;html=1;strokeWidth=1;fontSize=10;entryX=1.112;entryY=0.706;entryDx=0;entryDy=0;entryPerimeter=0;exitX=0.917;exitY=0.234;exitDx=0;exitDy=0;exitPerimeter=0;" edge="1" parent="cNOhPZVzwZBMdhGlMtOQ-4" source="cNOhPZVzwZBMdhGlMtOQ-90" target="cNOhPZVzwZBMdhGlMtOQ-90">
          <mxGeometry width="50" height="50" relative="1" as="geometry">
            <mxPoint x="61" y="539" as="sourcePoint" />
            <mxPoint x="40" y="510" as="targetPoint" />
            <Array as="points">
              <mxPoint x="80" y="547" />
              <mxPoint x="80" y="561" />
            </Array>
          </mxGeometry>
        </mxCell>
        <mxCell id="cNOhPZVzwZBMdhGlMtOQ-7" value="Check if user has enabled TFA" style="verticalAlign=bottom;endArrow=block;shadow=0;strokeWidth=1;entryX=-0.046;entryY=0.013;entryDx=0;entryDy=0;entryPerimeter=0;" edge="1" parent="WIyWlLk6GJQsqaUBKTNV-1" source="cNOhPZVzwZBMdhGlMtOQ-1" target="cNOhPZVzwZBMdhGlMtOQ-42">
          <mxGeometry relative="1" as="geometry">
            <mxPoint x="180" y="570" as="sourcePoint" />
            <mxPoint x="385.8600000000001" y="570.2600000000001" as="targetPoint" />
          </mxGeometry>
        </mxCell>
        <mxCell id="cNOhPZVzwZBMdhGlMtOQ-8" value="Return bool for if user has enabled TFA" style="verticalAlign=bottom;endArrow=block;shadow=0;strokeWidth=1;dashed=1;exitX=0.1;exitY=0.996;exitDx=0;exitDy=0;exitPerimeter=0;" edge="1" parent="WIyWlLk6GJQsqaUBKTNV-1" source="cNOhPZVzwZBMdhGlMtOQ-42" target="cNOhPZVzwZBMdhGlMtOQ-1">
          <mxGeometry relative="1" as="geometry">
            <mxPoint x="382.52" y="599.9" as="sourcePoint" />
            <mxPoint x="180" y="640" as="targetPoint" />
            <Array as="points" />
          </mxGeometry>
        </mxCell>
        <mxCell id="cNOhPZVzwZBMdhGlMtOQ-10" value="Azure Table" style="shape=umlLifeline;perimeter=lifelinePerimeter;container=1;collapsible=0;recursiveResize=0;rounded=0;shadow=0;strokeWidth=1;strokeColor=#FF3333;" vertex="1" parent="WIyWlLk6GJQsqaUBKTNV-1">
          <mxGeometry x="710" y="490" width="100" height="950" as="geometry" />
        </mxCell>
        <mxCell id="cNOhPZVzwZBMdhGlMtOQ-11" value="" style="points=[];perimeter=orthogonalPerimeter;rounded=0;shadow=0;strokeWidth=1;" vertex="1" parent="cNOhPZVzwZBMdhGlMtOQ-10">
          <mxGeometry x="45" y="110" width="10" height="40" as="geometry" />
        </mxCell>
        <mxCell id="cNOhPZVzwZBMdhGlMtOQ-63" value="" style="points=[];perimeter=orthogonalPerimeter;rounded=0;shadow=0;strokeWidth=1;" vertex="1" parent="cNOhPZVzwZBMdhGlMtOQ-10">
          <mxGeometry x="45" y="220" width="10" height="40" as="geometry" />
        </mxCell>
        <mxCell id="cNOhPZVzwZBMdhGlMtOQ-84" value="" style="points=[];perimeter=orthogonalPerimeter;rounded=0;shadow=0;strokeWidth=1;" vertex="1" parent="cNOhPZVzwZBMdhGlMtOQ-10">
          <mxGeometry x="45" y="360" width="10" height="20" as="geometry" />
        </mxCell>
        <mxCell id="cNOhPZVzwZBMdhGlMtOQ-40" value="Query record by email &amp; flag for TFA enabled" style="verticalAlign=bottom;endArrow=block;shadow=0;strokeWidth=1;entryX=0.086;entryY=0.044;entryDx=0;entryDy=0;entryPerimeter=0;" edge="1" parent="WIyWlLk6GJQsqaUBKTNV-1" source="cNOhPZVzwZBMdhGlMtOQ-42" target="cNOhPZVzwZBMdhGlMtOQ-11">
          <mxGeometry relative="1" as="geometry">
            <mxPoint x="520" y="602" as="sourcePoint" />
            <mxPoint x="660" y="569" as="targetPoint" />
          </mxGeometry>
        </mxCell>
        <mxCell id="cNOhPZVzwZBMdhGlMtOQ-41" value="Return record or nullÂ " style="verticalAlign=bottom;endArrow=block;shadow=0;strokeWidth=1;exitX=-0.152;exitY=0.999;exitDx=0;exitDy=0;exitPerimeter=0;dashed=1;" edge="1" parent="WIyWlLk6GJQsqaUBKTNV-1" source="cNOhPZVzwZBMdhGlMtOQ-11" target="cNOhPZVzwZBMdhGlMtOQ-42">
          <mxGeometry relative="1" as="geometry">
            <mxPoint x="610" y="600" as="sourcePoint" />
            <mxPoint x="400" y="600" as="targetPoint" />
            <Array as="points" />
          </mxGeometry>
        </mxCell>
        <mxCell id="cNOhPZVzwZBMdhGlMtOQ-47" value="Alt" style="text;html=1;align=center;verticalAlign=middle;whiteSpace=wrap;rounded=0;shadow=0;fontSize=10;strokeColor=#FFFFFF;fillColor=#CCCCCC;opacity=50;gradientColor=#CCCCCC;" vertex="1" parent="WIyWlLk6GJQsqaUBKTNV-1">
          <mxGeometry x="20" y="656" width="40" height="20" as="geometry" />
        </mxCell>
        <mxCell id="cNOhPZVzwZBMdhGlMtOQ-49" value="[ TFA enabled ]" style="text;html=1;strokeColor=none;fillColor=none;align=center;verticalAlign=middle;whiteSpace=wrap;rounded=0;shadow=0;fontSize=10;opacity=50;" vertex="1" parent="WIyWlLk6GJQsqaUBKTNV-1">
          <mxGeometry x="30" y="690" width="70" height="20" as="geometry" />
        </mxCell>
        <mxCell id="cNOhPZVzwZBMdhGlMtOQ-52" value="" style="endArrow=none;dashed=1;html=1;dashPattern=1 3;strokeWidth=2;fontSize=10;" edge="1" parent="WIyWlLk6GJQsqaUBKTNV-1">
          <mxGeometry width="50" height="50" relative="1" as="geometry">
            <mxPoint x="15" y="957" as="sourcePoint" />
            <mxPoint x="823" y="957" as="targetPoint" />
          </mxGeometry>
        </mxCell>
        <mxCell id="cNOhPZVzwZBMdhGlMtOQ-53" value="Verify the code" style="verticalAlign=bottom;endArrow=block;shadow=0;strokeWidth=1;entryX=-0.144;entryY=0.017;entryDx=0;entryDy=0;entryPerimeter=0;" edge="1" parent="WIyWlLk6GJQsqaUBKTNV-1" source="cNOhPZVzwZBMdhGlMtOQ-1" target="cNOhPZVzwZBMdhGlMtOQ-62">
          <mxGeometry relative="1" as="geometry">
            <mxPoint x="174.14" y="699.7600000000001" as="sourcePoint" />
            <mxPoint x="385.0000000000001" y="699.7600000000001" as="targetPoint" />
          </mxGeometry>
        </mxCell>
        <mxCell id="cNOhPZVzwZBMdhGlMtOQ-57" value="Actor" style="shape=umlActor;verticalLabelPosition=bottom;verticalAlign=top;html=1;outlineConnect=0;shadow=0;strokeColor=#FF3333;fillColor=#CCCCCC;gradientColor=#CCCCCC;fontSize=10;opacity=50;" vertex="1" parent="WIyWlLk6GJQsqaUBKTNV-1">
          <mxGeometry x="110" y="480" width="30" height="60" as="geometry" />
        </mxCell>
        <mxCell id="cNOhPZVzwZBMdhGlMtOQ-58" value="" style="endArrow=none;dashed=1;html=1;strokeWidth=1;fontSize=10;strokeColor=#FF3333;" edge="1" parent="WIyWlLk6GJQsqaUBKTNV-1" target="cNOhPZVzwZBMdhGlMtOQ-57">
          <mxGeometry width="50" height="50" relative="1" as="geometry">
            <mxPoint x="125" y="1440" as="sourcePoint" />
            <mxPoint x="320" y="530" as="targetPoint" />
          </mxGeometry>
        </mxCell>
        <mxCell id="cNOhPZVzwZBMdhGlMtOQ-59" value="New Action Request" style="verticalAlign=bottom;endArrow=block;shadow=0;strokeWidth=1;" edge="1" parent="WIyWlLk6GJQsqaUBKTNV-1" target="cNOhPZVzwZBMdhGlMtOQ-1">
          <mxGeometry relative="1" as="geometry">
            <mxPoint x="130" y="570" as="sourcePoint" />
            <mxPoint x="260.8600000000001" y="570.0000000000001" as="targetPoint" />
          </mxGeometry>
        </mxCell>
        <mxCell id="cNOhPZVzwZBMdhGlMtOQ-60" value="Input verify code" style="verticalAlign=bottom;endArrow=block;shadow=0;strokeWidth=1;" edge="1" parent="WIyWlLk6GJQsqaUBKTNV-1">
          <mxGeometry relative="1" as="geometry">
            <mxPoint x="130" y="676" as="sourcePoint" />
            <mxPoint x="285" y="676" as="targetPoint" />
          </mxGeometry>
        </mxCell>
        <mxCell id="cNOhPZVzwZBMdhGlMtOQ-61" value="Get the encrypted Pre-shared-key" style="verticalAlign=bottom;endArrow=block;shadow=0;strokeWidth=1;entryX=-0.142;entryY=0.016;entryDx=0;entryDy=0;entryPerimeter=0;" edge="1" parent="WIyWlLk6GJQsqaUBKTNV-1" target="cNOhPZVzwZBMdhGlMtOQ-63">
          <mxGeometry relative="1" as="geometry">
            <mxPoint x="514" y="710" as="sourcePoint" />
            <mxPoint x="745.4000000000001" y="710" as="targetPoint" />
          </mxGeometry>
        </mxCell>
        <mxCell id="cNOhPZVzwZBMdhGlMtOQ-64" value="Return recordÂ " style="verticalAlign=bottom;endArrow=block;shadow=0;strokeWidth=1;exitX=0.124;exitY=0.987;exitDx=0;exitDy=0;exitPerimeter=0;dashed=1;" edge="1" parent="WIyWlLk6GJQsqaUBKTNV-1" source="cNOhPZVzwZBMdhGlMtOQ-63" target="cNOhPZVzwZBMdhGlMtOQ-62">
          <mxGeometry relative="1" as="geometry">
            <mxPoint x="758.48" y="744.7600000000001" as="sourcePoint" />
            <mxPoint x="520" y="744.7600000000001" as="targetPoint" />
            <Array as="points" />
          </mxGeometry>
        </mxCell>
        <mxCell id="cNOhPZVzwZBMdhGlMtOQ-66" value="Decrypt the Pre-shared-key" style="text;html=1;strokeColor=none;fillColor=none;align=left;verticalAlign=middle;whiteSpace=wrap;rounded=0;shadow=0;fontSize=10;opacity=50;" vertex="1" parent="WIyWlLk6GJQsqaUBKTNV-1">
          <mxGeometry x="540" y="760" width="140" height="20" as="geometry" />
        </mxCell>
        <mxCell id="cNOhPZVzwZBMdhGlMtOQ-67" value="Return bool for if verify code is valid" style="verticalAlign=bottom;endArrow=block;shadow=0;strokeWidth=1;dashed=1;exitX=-0.095;exitY=0.998;exitDx=0;exitDy=0;exitPerimeter=0;" edge="1" parent="WIyWlLk6GJQsqaUBKTNV-1" source="cNOhPZVzwZBMdhGlMtOQ-62" target="cNOhPZVzwZBMdhGlMtOQ-1">
          <mxGeometry relative="1" as="geometry">
            <mxPoint x="501" y="790" as="sourcePoint" />
            <mxPoint x="290" y="790" as="targetPoint" />
            <Array as="points" />
          </mxGeometry>
        </mxCell>
        <mxCell id="cNOhPZVzwZBMdhGlMtOQ-69" value="Get OPT code with the PSK and check if verify code is in the list" style="text;html=1;strokeColor=none;fillColor=none;align=left;verticalAlign=middle;whiteSpace=wrap;rounded=0;shadow=0;fontSize=10;opacity=50;" vertex="1" parent="WIyWlLk6GJQsqaUBKTNV-1">
          <mxGeometry x="540" y="805" width="190" height="20" as="geometry" />
        </mxCell>
        <mxCell id="cNOhPZVzwZBMdhGlMtOQ-70" value="" style="points=[];perimeter=orthogonalPerimeter;rounded=0;shadow=0;strokeWidth=1;" vertex="1" parent="WIyWlLk6GJQsqaUBKTNV-1">
          <mxGeometry x="510" y="760" width="10" height="30" as="geometry" />
        </mxCell>
        <mxCell id="cNOhPZVzwZBMdhGlMtOQ-65" value="" style="endArrow=classic;html=1;strokeWidth=1;fontSize=10;entryX=1.112;entryY=0.706;entryDx=0;entryDy=0;entryPerimeter=0;exitX=0.917;exitY=0.234;exitDx=0;exitDy=0;exitPerimeter=0;" edge="1" parent="WIyWlLk6GJQsqaUBKTNV-1" source="cNOhPZVzwZBMdhGlMtOQ-70" target="cNOhPZVzwZBMdhGlMtOQ-70">
          <mxGeometry width="50" height="50" relative="1" as="geometry">
            <mxPoint x="521" y="759" as="sourcePoint" />
            <mxPoint x="500" y="730" as="targetPoint" />
            <Array as="points">
              <mxPoint x="540" y="767" />
              <mxPoint x="540" y="781" />
            </Array>
          </mxGeometry>
        </mxCell>
        <mxCell id="cNOhPZVzwZBMdhGlMtOQ-71" value="" style="points=[];perimeter=orthogonalPerimeter;rounded=0;shadow=0;strokeWidth=1;" vertex="1" parent="WIyWlLk6GJQsqaUBKTNV-1">
          <mxGeometry x="510" y="800" width="10" height="30" as="geometry" />
        </mxCell>
        <mxCell id="cNOhPZVzwZBMdhGlMtOQ-72" value="" style="endArrow=classic;html=1;strokeWidth=1;fontSize=10;entryX=1.112;entryY=0.706;entryDx=0;entryDy=0;entryPerimeter=0;exitX=0.917;exitY=0.234;exitDx=0;exitDy=0;exitPerimeter=0;" edge="1" parent="WIyWlLk6GJQsqaUBKTNV-1" source="cNOhPZVzwZBMdhGlMtOQ-71" target="cNOhPZVzwZBMdhGlMtOQ-71">
          <mxGeometry width="50" height="50" relative="1" as="geometry">
            <mxPoint x="521" y="799" as="sourcePoint" />
            <mxPoint x="500" y="770" as="targetPoint" />
            <Array as="points">
              <mxPoint x="540" y="807" />
              <mxPoint x="540" y="821" />
            </Array>
          </mxGeometry>
        </mxCell>
        <mxCell id="cNOhPZVzwZBMdhGlMtOQ-74" value="Take action when verify code is valid" style="verticalAlign=bottom;endArrow=block;shadow=0;strokeWidth=1;entryX=-0.095;entryY=0.023;entryDx=0;entryDy=0;entryPerimeter=0;" edge="1" parent="WIyWlLk6GJQsqaUBKTNV-1" source="cNOhPZVzwZBMdhGlMtOQ-1" target="cNOhPZVzwZBMdhGlMtOQ-73">
          <mxGeometry relative="1" as="geometry">
            <mxPoint x="320" y="880" as="sourcePoint" />
            <mxPoint x="498.55999999999995" y="880.004" as="targetPoint" />
          </mxGeometry>
        </mxCell>
        <mxCell id="cNOhPZVzwZBMdhGlMtOQ-75" value="Response" style="verticalAlign=bottom;endArrow=block;shadow=0;strokeWidth=1;dashed=1;exitX=0.002;exitY=0.987;exitDx=0;exitDy=0;exitPerimeter=0;" edge="1" parent="WIyWlLk6GJQsqaUBKTNV-1" source="cNOhPZVzwZBMdhGlMtOQ-73">
          <mxGeometry relative="1" as="geometry">
            <mxPoint x="499.04999999999995" y="909.9960000000001" as="sourcePoint" />
            <mxPoint x="295" y="938" as="targetPoint" />
            <Array as="points" />
          </mxGeometry>
        </mxCell>
        <mxCell id="cNOhPZVzwZBMdhGlMtOQ-76" value="[ TFA not enabled ]" style="text;html=1;strokeColor=none;fillColor=none;align=center;verticalAlign=middle;whiteSpace=wrap;rounded=0;shadow=0;fontSize=10;opacity=50;" vertex="1" parent="WIyWlLk6GJQsqaUBKTNV-1">
          <mxGeometry x="30" y="980" width="90" height="20" as="geometry" />
        </mxCell>
        <mxCell id="cNOhPZVzwZBMdhGlMtOQ-77" value="Register" style="verticalAlign=bottom;endArrow=block;shadow=0;strokeWidth=1;" edge="1" parent="WIyWlLk6GJQsqaUBKTNV-1" target="cNOhPZVzwZBMdhGlMtOQ-1">
          <mxGeometry relative="1" as="geometry">
            <mxPoint x="130" y="975" as="sourcePoint" />
            <mxPoint x="285" y="980" as="targetPoint" />
          </mxGeometry>
        </mxCell>
        <mxCell id="cNOhPZVzwZBMdhGlMtOQ-78" value="Register request" style="verticalAlign=bottom;endArrow=block;shadow=0;strokeWidth=1;" edge="1" parent="WIyWlLk6GJQsqaUBKTNV-1" source="cNOhPZVzwZBMdhGlMtOQ-1" target="cNOhPZVzwZBMdhGlMtOQ-79">
          <mxGeometry relative="1" as="geometry">
            <mxPoint x="301.44" y="980.0040000000001" as="sourcePoint" />
            <mxPoint x="510.00000000000017" y="980.0040000000001" as="targetPoint" />
          </mxGeometry>
        </mxCell>
        <mxCell id="cNOhPZVzwZBMdhGlMtOQ-80" value="" style="points=[];perimeter=orthogonalPerimeter;rounded=0;shadow=0;strokeWidth=1;" vertex="1" parent="WIyWlLk6GJQsqaUBKTNV-1">
          <mxGeometry x="510" y="990" width="10" height="30" as="geometry" />
        </mxCell>
        <mxCell id="cNOhPZVzwZBMdhGlMtOQ-81" value="" style="endArrow=classic;html=1;strokeWidth=1;fontSize=10;entryX=1.112;entryY=0.706;entryDx=0;entryDy=0;entryPerimeter=0;exitX=0.917;exitY=0.234;exitDx=0;exitDy=0;exitPerimeter=0;" edge="1" parent="WIyWlLk6GJQsqaUBKTNV-1" source="cNOhPZVzwZBMdhGlMtOQ-80" target="cNOhPZVzwZBMdhGlMtOQ-80">
          <mxGeometry width="50" height="50" relative="1" as="geometry">
            <mxPoint x="521" y="989" as="sourcePoint" />
            <mxPoint x="500" y="960" as="targetPoint" />
            <Array as="points">
              <mxPoint x="540" y="997" />
              <mxPoint x="540" y="1011" />
            </Array>
          </mxGeometry>
        </mxCell>
        <mxCell id="cNOhPZVzwZBMdhGlMtOQ-82" value="Get email from token and generate Pre-shared-key" style="text;html=1;strokeColor=none;fillColor=none;align=left;verticalAlign=middle;whiteSpace=wrap;rounded=0;shadow=0;fontSize=10;opacity=50;" vertex="1" parent="WIyWlLk6GJQsqaUBKTNV-1">
          <mxGeometry x="550" y="990" width="140" height="20" as="geometry" />
        </mxCell>
        <mxCell id="cNOhPZVzwZBMdhGlMtOQ-83" value="Update last verify time when verify code is valid" style="verticalAlign=bottom;endArrow=block;shadow=0;strokeWidth=1;entryX=-0.142;entryY=0.016;entryDx=0;entryDy=0;entryPerimeter=0;" edge="1" parent="WIyWlLk6GJQsqaUBKTNV-1">
          <mxGeometry relative="1" as="geometry">
            <mxPoint x="515.21" y="850" as="sourcePoint" />
            <mxPoint x="754.79" y="850.6399999999999" as="targetPoint" />
          </mxGeometry>
        </mxCell>
        <mxCell id="cNOhPZVzwZBMdhGlMtOQ-85" value="ReturnÂ " style="verticalAlign=bottom;endArrow=block;shadow=0;strokeWidth=1;exitX=0.124;exitY=0.987;exitDx=0;exitDy=0;exitPerimeter=0;dashed=1;" edge="1" parent="WIyWlLk6GJQsqaUBKTNV-1">
          <mxGeometry relative="1" as="geometry">
            <mxPoint x="755.6200000000002" y="870" as="sourcePoint" />
            <mxPoint x="514.38" y="870" as="targetPoint" />
            <Array as="points" />
          </mxGeometry>
        </mxCell>
        <mxCell id="cNOhPZVzwZBMdhGlMtOQ-86" value="" style="points=[];perimeter=orthogonalPerimeter;rounded=0;shadow=0;strokeWidth=1;" vertex="1" parent="WIyWlLk6GJQsqaUBKTNV-1">
          <mxGeometry x="755" y="1080" width="10" height="20" as="geometry" />
        </mxCell>
        <mxCell id="cNOhPZVzwZBMdhGlMtOQ-87" value="Insert records" style="verticalAlign=bottom;endArrow=block;shadow=0;strokeWidth=1;entryX=-0.021;entryY=0;entryDx=0;entryDy=0;entryPerimeter=0;" edge="1" parent="WIyWlLk6GJQsqaUBKTNV-1" source="cNOhPZVzwZBMdhGlMtOQ-79" target="cNOhPZVzwZBMdhGlMtOQ-86">
          <mxGeometry relative="1" as="geometry">
            <mxPoint x="515.21" y="1050" as="sourcePoint" />
            <mxPoint x="754.7899999999997" y="1050.6399999999999" as="targetPoint" />
          </mxGeometry>
        </mxCell>
        <mxCell id="cNOhPZVzwZBMdhGlMtOQ-88" value="ReturnÂ " style="verticalAlign=bottom;endArrow=block;shadow=0;strokeWidth=1;exitX=0.035;exitY=1.006;exitDx=0;exitDy=0;exitPerimeter=0;dashed=1;" edge="1" parent="WIyWlLk6GJQsqaUBKTNV-1" source="cNOhPZVzwZBMdhGlMtOQ-86" target="cNOhPZVzwZBMdhGlMtOQ-79">
          <mxGeometry relative="1" as="geometry">
            <mxPoint x="751.2400000000004" y="1080" as="sourcePoint" />
            <mxPoint x="520" y="1080" as="targetPoint" />
            <Array as="points" />
          </mxGeometry>
        </mxCell>
        <mxCell id="cNOhPZVzwZBMdhGlMtOQ-92" value="Encypt PSK" style="text;html=1;strokeColor=none;fillColor=none;align=left;verticalAlign=middle;whiteSpace=wrap;rounded=0;shadow=0;fontSize=10;opacity=50;" vertex="1" parent="WIyWlLk6GJQsqaUBKTNV-1">
          <mxGeometry x="550" y="1030" width="140" height="20" as="geometry" />
        </mxCell>
        <mxCell id="cNOhPZVzwZBMdhGlMtOQ-93" value="Return PSK" style="verticalAlign=bottom;endArrow=block;shadow=0;strokeWidth=1;dashed=1;exitX=-0.082;exitY=1;exitDx=0;exitDy=0;exitPerimeter=0;" edge="1" parent="WIyWlLk6GJQsqaUBKTNV-1" source="cNOhPZVzwZBMdhGlMtOQ-79" target="cNOhPZVzwZBMdhGlMtOQ-1">
          <mxGeometry relative="1" as="geometry">
            <mxPoint x="508.5200000000002" y="1130.17" as="sourcePoint" />
            <mxPoint x="300" y="1130" as="targetPoint" />
            <Array as="points" />
          </mxGeometry>
        </mxCell>
        <mxCell id="cNOhPZVzwZBMdhGlMtOQ-94" value="" style="points=[];perimeter=orthogonalPerimeter;rounded=0;shadow=0;strokeWidth=1;" vertex="1" parent="WIyWlLk6GJQsqaUBKTNV-1">
          <mxGeometry x="290" y="1160" width="10" height="30" as="geometry" />
        </mxCell>
        <mxCell id="cNOhPZVzwZBMdhGlMtOQ-95" value="" style="endArrow=classic;html=1;strokeWidth=1;fontSize=10;entryX=1.112;entryY=0.706;entryDx=0;entryDy=0;entryPerimeter=0;exitX=0.917;exitY=0.234;exitDx=0;exitDy=0;exitPerimeter=0;" edge="1" parent="WIyWlLk6GJQsqaUBKTNV-1" source="cNOhPZVzwZBMdhGlMtOQ-94" target="cNOhPZVzwZBMdhGlMtOQ-94">
          <mxGeometry width="50" height="50" relative="1" as="geometry">
            <mxPoint x="301" y="1159" as="sourcePoint" />
            <mxPoint x="280" y="1130" as="targetPoint" />
            <Array as="points">
              <mxPoint x="320" y="1167" />
              <mxPoint x="320" y="1181" />
            </Array>
          </mxGeometry>
        </mxCell>
        <mxCell id="cNOhPZVzwZBMdhGlMtOQ-96" value="Generate QR code and display" style="text;html=1;strokeColor=none;fillColor=none;align=left;verticalAlign=middle;whiteSpace=wrap;rounded=0;shadow=0;fontSize=10;opacity=50;" vertex="1" parent="WIyWlLk6GJQsqaUBKTNV-1">
          <mxGeometry x="330" y="1165" width="140" height="20" as="geometry" />
        </mxCell>
        <mxCell id="cNOhPZVzwZBMdhGlMtOQ-97" value="Scan QR code with Google Authenticator" style="verticalAlign=bottom;endArrow=block;shadow=0;strokeWidth=1;" edge="1" parent="WIyWlLk6GJQsqaUBKTNV-1" target="cNOhPZVzwZBMdhGlMtOQ-1">
          <mxGeometry relative="1" as="geometry">
            <mxPoint x="130" y="1208" as="sourcePoint" />
            <mxPoint x="275" y="1210" as="targetPoint" />
          </mxGeometry>
        </mxCell>
        <mxCell id="cNOhPZVzwZBMdhGlMtOQ-98" value="Get response &#xa;for the action requested" style="verticalAlign=bottom;endArrow=block;shadow=0;strokeWidth=1;dashed=1;" edge="1" parent="WIyWlLk6GJQsqaUBKTNV-1" source="cNOhPZVzwZBMdhGlMtOQ-1">
          <mxGeometry relative="1" as="geometry">
            <mxPoint x="290" y="940.1700000000001" as="sourcePoint" />
            <mxPoint x="130" y="940" as="targetPoint" />
            <Array as="points" />
          </mxGeometry>
        </mxCell>
      </root>
    </mxGraphModel>
  </diagram>
</mxfile>
